<?xml version="1.0" encoding="UTF-8" standalone="no"?>
<svg
   width="160"
   height="162"
   viewBox="25 68 160 162"
   version="1.1"
   id="svg1"
   xmlns="http://www.w3.org/2000/svg"
   xmlns:svg="http://www.w3.org/2000/svg">
  <title id="title6">Zinnia</title>
  <g id="layer1">
    <circle
       style="display:inline;fill:#5800cc;fill-opacity:1;fill-rule:evenodd;stroke-width:2.299;paint-order:stroke fill markers"
       id="path1"
       cx="105"
       cy="148.36771"
       r="76.114281" />
    <circle
       style="fill:none;fill-opacity:1;fill-rule:evenodd;stroke:#ffffff;stroke-width:4;paint-order:stroke fill markers;stroke-opacity:1;stroke-dasharray:none"
       id="path9"
       cx="105"
       cy="148.5"
       r="75.678696" />
    <path
       style="fill:#ffffff;fill-opacity:1;fill-rule:evenodd;stroke:#ffffff;stroke-width:3.99998;stroke-dasharray:none;stroke-opacity:1;paint-order:stroke fill markers"
       id="path2"
       d="m 102.3375,123.47852 c -0.8173,0.8173 -1.98897,-3.05964 -3.056824,-2.61732 -1.067855,0.44232 0.845064,4.01222 -0.310774,4.01222 -1.155838,0 0.757081,-3.5699 -0.310773,-4.01222 -1.067855,-0.44232 -2.239522,3.43462 -3.056823,2.61732 -0.817301,-0.8173 3.059642,-1.98897 2.617323,-3.05682 -0.44232,-1.06786 -4.012227,0.84506 -4.012227,-0.31078 0,-1.15583 3.569907,0.75709 4.012226,-0.31077 0.44232,-1.06785 -3.434623,-2.23952 -2.617322,-3.05682 0.817301,-0.8173 1.988968,3.05964 3.056823,2.61732 1.067854,-0.44232 -0.845065,-4.01223 0.310773,-4.01223 1.155838,0 -0.757081,3.56991 0.310773,4.01223 1.067855,0.44232 2.239525,-3.43462 3.056825,-2.61732 0.8173,0.8173 -3.059644,1.98897 -2.617324,3.05682 0.442324,1.06786 4.012224,-0.84506 4.012224,0.31077 0,1.15584 -3.5699,-0.75708 -4.012224,0.31078 -0.44232,1.06785 3.434624,2.23952 2.617324,3.05682 z"
       transform="matrix(6.1225469,0,0,5.3868075,-499.69901,-520.77798)" />
    <path
       style="fill:none;fill-opacity:1;fill-rule:evenodd;stroke:#ffffff;stroke-width:4;stroke-opacity:1;paint-order:stroke fill markers"
       d="m 109.03653,141.31892 c -12.832288,41.80417 -3.46778,83.18003 -3.46778,83.18003"
       id="path3" />
    <path
       style="display:inline;fill:#ffffff;fill-opacity:1;fill-rule:evenodd;stroke:#ffffff;stroke-width:3.24591;stroke-opacity:1;paint-order:stroke fill markers"
       d="m 101.72249,197.29583 c -21.939574,9.50112 -41.730131,-7.76459 -43.850467,-16.98202 11.192487,-0.64773 35.426054,2.39752 43.477427,13.0969"
       id="path4" />
    <path
       style="fill:#ffffff;fill-opacity:1;fill-rule:evenodd;stroke:#ffffff;stroke-width:3.24591;stroke-opacity:1;paint-order:stroke fill markers"
       d="m 102.20827,195.02098 c 8.29026,6.60915 23.51002,12.38123 47.9862,-10.52046 -43.90726,-6.01692 -48.80923,12.8822 -47.3421,6.6558"
       id="path5" />
  </g>
</svg>
